# xmcd
#
# Track frame offsets:
#	150
#	15937
#	34941
#	52017
#	67066
#	82762
#	99664
#	115483
#	130865
#	149592
#	165284
#	181326
#	195119
#	212537
#	229482
#	249490
#	268310
#	288772
#	307796
#	324493
#	343854
#
# Disc length: 4791 seconds
#
# Revision: 1
# Processed by: cddbd v1.5.2PL0 Copyright (c) Steve Scherf et al.
# Submitted via: audiograbber 1.83.01
#
DISCID=2912b515
DTITLE=Various Artist - Bravo Hits 30 CD 2
DYEAR=2000
DGENRE=Pop
TTITLE0=Zlatko and Jürgen - Großer Bruder
TTITLE1=Anton feat. DJ Ötzi - Gemma Bier trinken
TTITLE2=Athos inc. - Opa Opa
TTITLE3=Masterboy - Feel the Heat 2000
TTITLE4=Alice Deejay - Will I ever
TTITLE5=ATB - The Summer
TTITLE6=Mabel - Bum bum
TTITLE7=Gigi D´Agostino - The Riddle
TTITLE8=Eyes Cream - Fly away (bye bye)
TTITLE9=E.A.V. - 3 weisse Tauben
TTITLE10=Bruno Belmondo - Der Teufel hat den Sex gemacht!
TTITLE11=Olsen Brothers - Fly on the wings of love
TTITLE12=Reamonn - Supergirl
TTITLE13=Bon Jovi - It´s my life
TTITLE14=Sasha - Chemical reaction
TTITLE15=Band ohne Namen - Take my heart
TTITLE16=Echt - Junimond
TTITLE17=Melanie C. - Never be the same again
TTITLE18=Tic Tac Toe - Ist der Ruf erst ruiniert...
TTITLE19=DJ Tomekk feat. GZA, Curse prodigal sunn - Ich lebe für Hip Hop
TTITLE20=Snap! - Gimme a thrill
EXTD=
EXTT0=
EXTT1=
EXTT2=
EXTT3=
EXTT4=
EXTT5=
EXTT6=
EXTT7=
EXTT8=
EXTT9=
EXTT10=
EXTT11=
EXTT12=
EXTT13=
EXTT14=
EXTT15=
EXTT16=
EXTT17=
EXTT18=
EXTT19=
EXTT20=
PLAYORDER=
